<svg xmlns="http://www.w3.org/2000/svg" xmlns:xlink="http://www.w3.org/1999/xlink" version="1.1" width="1000" height="1000" viewBox="0 0 1000 1000" xml:space="preserve">
<desc>Created with Fabric.js 3.5.0</desc>
<defs>
</defs>
<rect x="0" y="0" width="100%" height="100%" fill="#ffffff"/>
<g transform="matrix(0.2539 0 0 0.265 71.9541 90.9857)" id="737629">
<path style="stroke: none; stroke-width: 1; stroke-dasharray: none; stroke-linecap: butt; stroke-dashoffset: 0; stroke-linejoin: miter; stroke-miterlimit: 4; is-custom-font: none; font-file-url: none; fill: rgb(0,0,0); fill-rule: nonzero; opacity: 1;" vector-effect="non-scaling-stroke" transform=" translate(-501.1072, -522.5085)" d="M 600.116 503.301 l -88.955 -77.062 c -0.298 -0.254 -0.656 -0.472 -1.059 -0.639 c -5.693 -4.32 -13.557 -4.119 -19.049 0.639 l -88.956 77.053 c -6.376 5.519 -7.181 15.313 -1.784 21.839 c 3.411 4.128 9.069 4.075 13.408 3.2 v 82.834 c 0 6.253 5.02 11.344 11.195 11.344 h 53.586 c 2.414 0 4.374 -1.96 4.374 -4.373 v -72.242 h 36.471 v 72.242 c 0 2.413 1.959 4.373 4.372 4.373 h 53.587 c 6.175 0 11.195 -5.091 11.195 -11.344 v -82.834 c 4.355 0.857 9.996 0.919 13.407 -3.2 C 607.297 518.606 606.492 508.802 600.116 503.301 z M 595.166 519.551 c -0.9 1.058 -5.563 0.48 -9.288 -1.146 c -1.355 -0.595 -2.93 -0.454 -4.146 0.351 c -1.233 0.805 -1.985 2.187 -1.985 3.655 v 88.746 c 0 1.435 -1.103 2.598 -2.449 2.598 h -49.214 v -72.242 c 0 -2.414 -1.959 -4.373 -4.373 -4.373 h -45.217 c -2.414 0 -4.373 1.959 -4.373 4.373 v 72.242 h -49.214 c -1.347 0 -2.449 -1.163 -2.449 -2.598 V 522.41 c 0 -1.478 -0.744 -2.859 -1.985 -3.664 c -1.233 -0.796 -2.799 -0.919 -4.155 -0.342 c -3.306 1.461 -8.334 2.283 -9.279 1.138 c -2.388 -2.887 -2.046 -7.207 0.77 -9.647 l 88.956 -77.061 c 2.432 -2.099 5.956 -2.099 8.388 0 c 0.314 0.28 0.674 0.507 1.05 0.674 l 88.186 76.405 C 597.213 512.344 597.553 516.664 595.166 519.551 L 595.166 519.551 z" stroke-linecap="round"/>
</g>
</svg>